<svg width="50.000000" height="50.000000" viewBox="0 0 50 50" fill="none" xmlns="http://www.w3.org/2000/svg" xmlns:xlink="http://www.w3.org/1999/xlink">
	<desc>
			Created with Pixso.
	</desc>
	<defs>
		<clipPath id="clip4_1078">
			<rect id="Frame" width="50.000000" height="50.000000" fill="white" fill-opacity="0"/>
		</clipPath>
	</defs>
	<rect id="Frame" width="50.000000" height="50.000000" fill="#FFFFFF" fill-opacity="0"/>
	<g clip-path="url(#clip4_1078)">
		<path id="Vector" d="M24.9999 8.33325C14.5833 8.33325 5.68744 14.8124 2.08325 23.9583C5.68744 33.1041 14.5833 39.5833 24.9999 39.5833C35.4166 39.5833 44.3124 33.1041 47.9166 23.9583C44.3124 14.8124 35.4166 8.33325 24.9999 8.33325ZM24.9999 34.3749C19.2499 34.3749 14.5833 29.7083 14.5833 23.9583C14.5833 18.2083 19.2499 13.5416 24.9999 13.5416C30.7499 13.5416 35.4166 18.2083 35.4166 23.9583C35.4166 29.7083 30.7499 34.3749 24.9999 34.3749ZM24.9999 17.7083C21.5416 17.7083 18.7499 20.4999 18.7499 23.9583C18.7499 27.4166 21.5416 30.2083 24.9999 30.2083C28.4583 30.2083 31.2499 27.4166 31.2499 23.9583C31.2499 20.4999 28.4583 17.7083 24.9999 17.7083Z" fill="#131314" fill-opacity="1.000000" fill-rule="nonzero"/>
	</g>
</svg>
